<svg width="161" height="75" viewBox="0 0 161 75" fill="none" xmlns="http://www.w3.org/2000/svg">
<path fill-rule="evenodd" clip-rule="evenodd" d="M149.306 66.1276C148.587 66.1276 147.973 66.1854 147.371 66.1165C146.151 65.9749 144.931 66.0031 143.709 65.9653C142.922 65.9438 142.945 65.9438 142.879 65.1761C142.683 62.8301 142.471 60.4877 142.26 58.1431C142.079 56.0838 141.905 54.0245 141.705 51.9667C141.525 50.0816 141.305 48.2009 141.109 46.3187C140.919 44.5499 140.746 42.7774 140.55 41.01C140.305 38.7848 140.045 36.5632 139.784 34.3401C139.548 32.3757 139.314 30.4083 139.051 28.4475C138.641 25.4049 138.219 22.3675 137.793 19.3278C137.333 16.0911 136.782 12.8691 136.206 9.6531C136.102 9.07733 136.116 9.05584 136.663 8.96247C138.936 8.57195 141.222 8.23849 143.535 8.28962C143.784 8.29555 144.038 8.30074 144.285 8.3326C144.693 8.38447 144.904 8.58158 144.925 9.05954C145.005 10.7216 145.119 12.3845 145.242 14.0451C145.437 16.7669 145.648 19.4872 145.85 22.2052C145.977 23.9548 146.088 25.7013 146.219 27.4487C146.429 30.2556 146.648 33.0596 146.859 35.8659C146.986 37.5828 147.099 39.3027 147.231 41.0189C147.432 43.5376 147.648 46.0556 147.852 48.5729C147.981 50.1749 148.095 51.78 148.23 53.3821C148.43 55.7563 148.646 58.129 148.849 60.5025C149.009 62.3588 149.149 64.215 149.306 66.1276Z" fill="#FF6699"/>
<path fill-rule="evenodd" clip-rule="evenodd" d="M61.2708 8.31607C61.6033 8.31607 62.1069 8.27902 62.6034 8.32571C63.236 8.38276 63.3578 8.54801 63.3951 9.18751C63.5764 12.1108 63.7454 15.0349 63.9396 17.9582C64.1509 21.112 64.3831 24.2606 64.6152 27.4099C64.828 30.3028 65.0429 33.195 65.2722 36.0857C65.5237 39.2617 65.7995 42.4348 66.0538 45.6123C66.2451 48.0458 66.4085 50.4808 66.6048 52.915C66.7939 55.1744 67.0131 57.4315 67.2159 59.6894C67.3893 61.6323 67.5619 63.5783 67.7296 65.5234C67.7819 66.1385 67.7382 66.1777 67.0805 66.1622C65.356 66.1199 63.6387 65.9177 61.9142 65.9658C61.5194 65.9769 61.4034 65.7946 61.3382 65.4175C61.1956 64.5949 61.2193 63.7583 61.1304 62.9291C60.8947 60.732 60.7593 58.5253 60.5587 56.3222C60.3789 54.3222 60.1625 52.3252 59.959 50.3259C59.7785 48.4993 59.5979 46.6719 59.4052 44.8431C59.2125 43.0476 59.0076 41.2521 58.8048 39.4551C58.6178 37.8012 58.4373 36.148 58.2403 34.4955C57.948 32.0739 57.6585 29.6507 57.3426 27.2343C57.0503 25.0164 56.7207 22.8037 56.409 20.5888C55.9871 17.5795 55.5113 14.5747 54.9848 11.5832C54.863 10.9067 54.7383 10.2294 54.6029 9.55506C54.5348 9.21419 54.5964 9.01782 54.9819 8.96521C55.9978 8.82886 57.0101 8.61619 58.0289 8.51689C59.0506 8.41759 60.0701 8.22493 61.2708 8.31607Z" fill="#FF6699"/>
<path fill-rule="evenodd" clip-rule="evenodd" d="M133.505 37.5125C135.448 37.5132 135.494 37.5265 135.805 39.2887C136.189 41.4621 136.456 43.6555 136.711 45.8496C136.979 48.1861 137.251 50.5233 137.5 52.8619C137.699 54.7456 137.868 56.6322 138.056 58.5144C138.253 60.4862 138.462 62.4544 138.666 64.4233C138.779 65.537 138.885 66.6508 139.01 67.7616C139.047 68.0839 138.95 68.2558 138.637 68.2929C137.974 68.3699 137.314 68.4566 136.651 68.5285C135.438 68.6612 134.224 68.7894 133.007 68.9042C132.381 68.9628 132.339 68.9264 132.223 68.3158C131.157 62.7693 130.09 57.228 129.033 51.68C128.329 47.9912 127.644 44.3009 126.956 40.6099C126.862 40.1016 126.779 39.5925 126.699 39.0842C126.653 38.7914 126.731 38.604 127.059 38.5262C129.252 38.0104 131.463 37.611 133.505 37.5125Z" fill="#FF6699"/>
<path fill-rule="evenodd" clip-rule="evenodd" d="M51.8639 37.5125C53.9438 37.5125 53.9345 37.5184 54.254 39.4206C54.7491 42.3632 55.1008 45.3243 55.4168 48.2913C55.7249 51.1716 56.0602 54.0498 56.3604 56.9308C56.5653 58.9005 56.7265 60.8768 56.917 62.8442C57.0532 64.2447 57.2144 65.6408 57.3612 67.0391C57.3799 67.2103 57.3899 67.3822 57.3992 67.5548C57.4286 68.2395 57.3992 68.2951 56.7444 68.3633C55.4462 68.5004 54.1465 68.613 52.8483 68.7434C52.3776 68.7894 51.9098 68.8598 51.4427 68.9057C50.823 68.9628 50.8022 68.9605 50.6804 68.3284C50.2441 66.1076 49.8221 63.8823 49.3936 61.6608C48.3684 56.3121 47.3339 50.9679 46.3151 45.617C45.9096 43.4769 45.5585 41.3272 45.1587 39.1864C45.0864 38.7959 45.1408 38.6129 45.542 38.518C47.7143 38.0119 49.8959 37.614 51.8639 37.5125Z" fill="#FF6699"/>
<path fill-rule="evenodd" clip-rule="evenodd" d="M79.2996 59.9407V68.9197C79.2996 69.0063 79.291 69.093 79.301 69.179C79.3447 69.6132 79.1864 69.8074 78.74 69.7889C78.1547 69.7629 77.5722 69.7807 76.9869 69.7941C75.7647 69.817 74.541 69.7696 73.3209 69.9089C72.6453 69.9867 72.6589 69.946 72.5937 69.2279C72.3938 66.9671 72.1753 64.7092 71.9711 62.4491C71.7819 60.3616 71.6121 58.272 71.4194 56.186C71.2238 54.04 71.006 51.8992 70.809 49.7547C70.6736 48.3245 70.5547 46.8958 70.4343 45.4635C70.2774 43.6028 70.1334 41.7421 69.9708 39.8814C69.9027 39.0966 69.96 38.9855 70.7309 38.904C72.7262 38.6905 74.7251 38.6127 76.7283 38.7172C77.2262 38.7439 77.7227 38.8432 78.2063 38.961C78.8153 39.107 78.8826 39.1974 78.9127 39.8384C78.9801 41.13 79.0467 42.4231 79.0804 43.7161C79.1183 45.1537 79.0882 46.5935 79.1398 48.0326C79.2752 52 79.2537 55.9704 79.2996 59.9407Z" fill="#FF6699"/>
<path fill-rule="evenodd" clip-rule="evenodd" d="M160.778 60.347V68.8487C160.778 68.9932 160.773 69.1362 160.78 69.2814C160.811 69.6549 160.638 69.7868 160.285 69.7838C159.423 69.7764 158.561 69.7838 157.698 69.7957C156.725 69.8061 155.752 69.7994 154.781 69.9068C154.139 69.9802 154.135 69.9328 154.077 69.291C153.812 66.3477 153.535 63.4037 153.27 60.4566C153.026 57.74 152.802 55.0213 152.554 52.3039C152.299 49.5007 152.02 46.7018 151.77 43.9C151.645 42.4973 151.542 41.0938 151.439 39.6896C151.396 39.0775 151.463 38.9701 152.148 38.913C153.337 38.8189 154.524 38.6566 155.721 38.6773C156.916 38.6996 158.112 38.6344 159.299 38.8633C160.304 39.0582 160.356 39.116 160.416 40.1987C160.588 43.388 160.535 46.5855 160.648 49.7734C160.767 53.1694 160.686 56.5633 160.778 60.347Z" fill="#FF6699"/>
<path fill-rule="evenodd" clip-rule="evenodd" d="M131.477 22.0852C132.18 22.1274 132.734 22.0911 133.285 22.2149C133.637 22.2957 133.814 22.4557 133.848 22.8359C134.014 24.6639 134.192 26.4913 134.373 28.3209C134.518 29.8051 134.673 31.2887 134.821 32.7729C134.825 32.8003 134.83 32.83 134.835 32.8596C134.954 33.7948 134.927 33.8215 134.024 33.8718C133.221 33.9156 132.418 33.9874 131.614 34.0364C131.087 34.0697 130.918 34.1586 130.831 33.3835C130.53 30.6455 130.182 27.9155 129.849 25.1812C129.755 24.4127 129.657 23.645 129.542 22.8803C129.476 22.4476 129.643 22.209 130.045 22.1741C130.571 22.1245 131.1 22.1089 131.477 22.0852Z" fill="#FF6699"/>
<path fill-rule="evenodd" clip-rule="evenodd" d="M50.0994 22.0981C50.6425 22.1293 51.1991 22.087 51.7472 22.2145C52.0589 22.2864 52.2186 22.4183 52.2487 22.7777C52.3161 23.635 52.4458 24.4887 52.5274 25.3453C52.7818 27.9744 53.0246 30.605 53.2632 33.2342C53.3134 33.807 53.3026 33.8188 52.771 33.8566C51.8296 33.9255 50.8861 33.9967 49.9418 34.036C49.3937 34.0619 49.3249 33.9952 49.2547 33.4291C49.0154 31.492 48.7897 29.5558 48.5605 27.6165C48.3735 26.0196 48.2173 24.4198 47.9931 22.828C47.9307 22.3879 48.074 22.2671 48.4222 22.1952C48.9739 22.0818 49.5305 22.1196 50.0994 22.0981Z" fill="#FF6699"/>
<path fill-rule="evenodd" clip-rule="evenodd" d="M78.7584 29.3366C78.7584 31.0009 78.762 32.6652 78.7569 34.3318C78.7569 35.0787 78.7476 35.0839 78.0104 35.0743C77.1227 35.0661 76.2358 35.0469 75.3545 34.9364C74.785 34.8646 74.7735 34.8824 74.7577 34.2732C74.6997 32.2377 74.6403 30.2021 74.6001 28.1672C74.57 26.7897 74.5543 25.4151 74.4712 24.0383C74.4282 23.3284 74.4676 23.3202 75.1432 23.3106C76.1419 23.2988 77.1392 23.3447 78.1315 23.4981C78.729 23.5915 78.7569 23.5915 78.7584 24.2569C78.7634 25.9494 78.762 27.6433 78.762 29.3366H78.7584Z" fill="#FF6699"/>
<path fill-rule="evenodd" clip-rule="evenodd" d="M160.278 29.3775C160.278 31.044 160.284 32.7098 160.276 34.3742C160.276 35.0729 160.264 35.0789 159.569 35.0737C158.655 35.0685 157.742 35.0174 156.831 34.9447C156.38 34.9092 156.244 34.7172 156.276 34.3038C156.281 34.246 156.275 34.1882 156.275 34.1311C156.206 30.9173 156.138 27.7057 156.073 24.4904C156.072 24.3185 156.062 24.1466 156.068 23.974C156.077 23.3263 156.079 23.31 156.726 23.313C157.615 23.3167 158.497 23.3648 159.384 23.4523C160.465 23.562 160.276 23.6961 160.278 24.5564C160.284 26.1622 160.281 27.7724 160.278 29.3775Z" fill="#FF6699"/>
<path fill-rule="evenodd" clip-rule="evenodd" d="M47.8713 33.2881C47.8928 34.2033 47.8928 34.2003 47.0244 34.413C46.4334 34.5582 45.8437 34.7176 45.2491 34.8502C44.7426 34.9651 44.6509 34.9006 44.5642 34.3989C43.9588 30.9902 43.3534 27.5801 42.753 24.1692C42.6319 23.4622 42.6642 23.4185 43.3534 23.2962C44.2002 23.1451 45.0456 22.9969 45.8946 22.865C46.4348 22.7798 46.5036 22.8087 46.6118 23.4081C46.8253 24.6197 47.028 25.8357 47.1849 27.0554C47.4307 28.9865 47.6334 30.9243 47.8527 32.8591C47.8677 32.9999 47.8634 33.1459 47.8713 33.2881Z" fill="#FF6699"/>
<path fill-rule="evenodd" clip-rule="evenodd" d="M124.274 23.3922C125.384 23.2092 126.501 23.0232 127.621 22.8461C128.023 22.7838 128.145 23.0373 128.197 23.3989C128.387 24.7335 128.626 26.0584 128.783 27.3937C129.014 29.33 129.328 31.2552 129.387 33.2092C129.393 33.4086 129.389 33.6123 129.394 33.8117C129.405 34.1229 129.252 34.2822 128.967 34.3482C128.21 34.5186 127.451 34.6913 126.696 34.8743C126.334 34.9617 126.212 34.8076 126.152 34.4497C125.925 33.0936 125.662 31.7435 125.43 30.3911C125.038 28.1629 124.657 25.9332 124.276 23.7042C124.263 23.6219 124.274 23.536 124.274 23.3922Z" fill="#FF6699"/>
<path fill-rule="evenodd" clip-rule="evenodd" d="M73.2508 31.2144C73.2185 32.3993 73.2888 33.4337 73.129 34.4667C73.0803 34.7943 72.9857 35.0047 72.6382 35.0343C71.8903 35.0958 71.1423 35.1574 70.3986 35.2337C70.039 35.273 69.9358 35.1166 69.8763 34.7587C69.7087 33.7042 69.7388 32.6386 69.6363 31.5797C69.4465 29.5804 69.3655 27.5701 69.2358 25.5641C69.2036 25.0765 69.1549 24.5904 69.1169 24.1036C69.0954 23.8301 69.2036 23.6768 69.4938 23.6664C70.4631 23.6264 71.4289 23.4478 72.4018 23.4841C72.9714 23.5048 73.0208 23.5426 73.0616 24.1214C73.086 24.523 73.0803 24.9283 73.0903 25.3292C73.1455 27.3403 73.1992 29.3522 73.2508 31.2144Z" fill="#FF6699"/>
<path fill-rule="evenodd" clip-rule="evenodd" d="M154.735 30.0636C154.735 31.4434 154.751 32.8239 154.732 34.2037C154.721 34.921 154.64 34.9832 153.967 35.0477C153.301 35.1099 152.64 35.1618 151.976 35.2322C151.602 35.2707 151.428 35.1603 151.404 34.7268C151.306 32.8928 151.176 31.0595 151.049 29.227C150.95 27.7086 150.839 26.1903 150.733 24.6742C150.722 24.5015 150.73 24.3274 150.72 24.1547C150.703 23.8524 150.796 23.6723 151.133 23.6612C152.074 23.6286 153.01 23.4456 153.959 23.4811C154.538 23.5026 154.546 23.5122 154.59 24.1177C154.732 26.0969 154.745 28.0799 154.735 30.0636Z" fill="#FF6699"/>
<path fill-rule="evenodd" clip-rule="evenodd" d="M22.1391 66.7955C21.5795 62.5754 21.02 58.3835 20.4361 54.0167C24.6645 55.3105 28.5978 56.8926 32.5161 58.5947C31.8756 59.6336 23.8012 65.9938 22.1391 66.7955ZM45.088 54.7324C44.7126 54.31 44.3185 53.9046 43.8736 53.5527C42.5711 52.5049 41.1418 51.6816 39.6488 50.9672C36.6347 49.526 33.4902 48.4952 30.259 47.7223C26.5665 46.8405 22.8309 46.3151 19.0345 46.324C17.813 46.3277 16.5957 46.4581 15.3849 46.6271C14.7724 46.7101 14.7251 46.6597 14.6713 46.1158C14.3955 43.2577 14.0982 40.4011 13.8546 37.5415C13.606 34.6248 13.3653 31.703 13.1969 28.7797C12.9841 25.0768 12.7914 21.3747 12.694 17.6688C12.5843 13.4406 12.6359 9.21086 12.6868 4.98186C12.6889 4.66471 12.7033 4.34829 12.7319 4.03484C12.8458 2.85885 12.7993 1.67692 12.8329 0.497961C12.8458 0.0377883 12.7305 -0.057062 12.2748 0.0281551C11.6186 0.150423 10.9838 0.369024 10.3662 0.62838C7.04407 2.02446 3.73195 3.43906 0.408364 4.82921C0.0616051 4.97593 -0.0573247 5.13525 0.0250664 5.53318C0.654821 8.50615 1.2115 11.4939 1.72519 14.4906C2.35566 18.1646 2.93168 21.8482 3.46973 25.5385C3.79643 27.78 4.11811 30.0238 4.4183 32.2699C4.72924 34.6026 5.02083 36.9353 5.3024 39.271C5.55674 41.3814 5.78671 43.4926 6.02457 45.6008C6.28751 47.8839 6.55689 50.1625 6.79475 52.4463C7.00109 54.3863 7.16372 56.3337 7.35214 58.2759C7.60863 60.9621 7.88805 63.6461 8.12805 66.333C8.33081 68.6509 8.48986 70.9703 8.67614 73.2889C8.72772 73.9358 8.81799 74.0418 9.43055 74.0655C10.1534 74.09 10.8778 74.07 11.6021 74.07C12.6023 74.0774 13.5981 74.0292 14.5983 73.9744C17.8767 73.7936 21.1193 73.3223 24.3426 72.708C28.8226 71.8529 33.1162 70.4027 37.1648 68.2211C39.5162 66.954 41.7272 65.4623 43.5584 63.443C44.6502 62.2344 45.5515 60.8865 45.9456 59.2511C46.3368 57.6164 46.2787 56.0529 45.088 54.7324Z" fill="#FF6699"/>
<mask id="mask0_6231_310132" style="mask-type:alpha" maskUnits="userSpaceOnUse" x="81" y="0" width="47" height="75">
<path fill-rule="evenodd" clip-rule="evenodd" d="M81.5581 0.00439453H127.72V74.1018H81.5581V0.00439453Z" fill="white"/>
</mask>
<g mask="url(#mask0_6231_310132)">
<path fill-rule="evenodd" clip-rule="evenodd" d="M113.842 59.014C113.433 59.4505 112.981 59.8284 112.524 60.2034C109.815 62.4494 106.973 64.5131 104.15 66.6013C104.041 66.6814 103.945 66.7962 103.696 66.7406C103.137 62.5554 102.582 58.3879 102.023 54.1856C102.369 54.0233 102.647 54.2122 102.917 54.2967C106.025 55.28 109.055 56.4842 112.07 57.7269C112.635 57.9596 113.188 58.2337 113.746 58.4909C114.024 58.6168 114.049 58.7895 113.842 59.014ZM125.994 54.0388C124.95 53.1185 123.818 52.3449 122.606 51.6883C119.913 50.2219 117.063 49.1763 114.135 48.3375C109.809 47.094 105.402 46.3782 100.904 46.3204C99.6234 46.3034 98.3525 46.4434 97.0851 46.6175C96.365 46.7146 96.3292 46.7087 96.2389 45.9692C96.0742 44.6309 95.9416 43.2882 95.8205 41.9432C95.592 39.4838 95.3541 37.0265 95.1729 34.5656C94.9221 31.154 94.6764 27.7453 94.5087 24.3307C94.3791 21.7467 94.2436 19.1598 94.2709 16.5707C94.2759 16.0253 94.2544 15.4762 94.2293 14.9309C94.1211 12.7752 94.1104 10.6144 94.2114 8.46029C94.3353 5.81855 94.1964 3.16867 94.4356 0.530648C94.4779 0.0430576 94.364 -0.0303032 93.9112 0.0163809C93.4076 0.0667702 92.9368 0.26314 92.4704 0.439502C88.9097 1.76296 85.4908 3.44211 81.9609 4.83448C81.5984 4.97676 81.4838 5.17387 81.6041 5.54438C81.6543 5.70814 81.6708 5.88302 81.703 6.05124C82.5011 9.86748 83.1853 13.7074 83.7936 17.5607C84.2256 20.2803 84.6633 22.9983 85.0732 25.7231C85.3827 27.8216 85.6642 29.9283 85.9451 32.0321C86.203 33.995 86.4459 35.9595 86.6887 37.9254C86.9488 40.0321 87.2082 42.1396 87.4532 44.2478C87.6567 45.9877 87.835 47.7291 88.022 49.4705C88.2219 51.326 88.4333 53.1778 88.6174 55.0355C88.8173 57.0074 88.9871 58.9822 89.1705 60.9525C89.3747 63.0978 89.5868 65.2408 89.7802 67.3853C89.9607 69.415 90.1313 71.4461 90.2788 73.4795C90.3125 73.9441 90.5332 74.0678 90.9208 74.0678C91.6451 74.0649 92.3666 74.0671 92.9154 74.0671C94.6219 74.1745 96.1494 74.01 97.6697 73.8774C100.351 73.644 103.017 73.2497 105.671 72.7525C110.523 71.8374 115.138 70.2471 119.469 67.8025C121.678 66.5576 123.72 65.0667 125.402 63.1045C126.451 61.8833 127.234 60.5205 127.582 58.8962C128 56.9281 127.465 55.3386 125.994 54.0388Z" fill="#FF6699"/>
</g>
</svg>
